<svg width="236" height="194" viewBox="0 0 236 194" fill="none" xmlns="http://www.w3.org/2000/svg">
<path d="M97.3426 4.7C94.6426 7.3 82.5426 19.2 70.4426 31.2C49.9426 51.4 48.4426 53.1 48.4426 54.5C48.4426 57.5 51.1425 59.4 53.6425 58C55.6425 57 107.043 5.9 107.243 4.8C107.843 2.4 105.843 0 103.143 0C102.643 0 100.343 1.8 97.3426 4.7Z" fill="currentColor"/>
<path d="M130.643 0.499735C129.443 1.09974 128.443 3.29974 128.843 4.69974C129.143 5.89974 181.143 57.4997 182.743 58.0997C185.243 58.9997 187.643 57.1997 187.643 54.2997C187.643 52.8997 186.143 51.2997 166.043 31.4997C154.243 19.7997 142.143 7.89974 139.143 4.99974C133.643 -0.200264 132.943 -0.600265 130.643 0.499735Z" fill="currentColor"/>
<path d="M7.34255 68.6996C4.84255 69.8996 2.54255 71.9996 1.24255 74.3996C0.342549 76.0996 0.242549 77.0996 0.0425488 85.9996C-0.157451 97.8996 0.242549 99.8996 3.54255 103.2C5.74255 105.4 9.14255 106.8 11.9425 106.8C13.1425 106.8 13.3426 107.4 26.7425 144.7C34.1425 165.6 40.6425 183.5 41.1425 184.6C42.3425 187.4 45.3425 190.2 48.8425 191.8L51.8425 193.2H116.843H181.843L184.443 192.1C187.243 191 190.243 188.7 191.843 186.4C192.443 185.6 199.643 167.4 207.843 146L222.843 107.1L225.643 106.5C229.243 105.8 230.743 105 232.843 102.7C235.643 99.5996 236.043 97.2996 235.843 85.8996C235.743 76.9996 235.643 75.9996 234.643 74.2996C233.343 71.8996 231.043 69.6996 228.543 68.5996C226.443 67.6996 226.143 67.5996 117.843 67.5996C9.84255 67.7996 9.44255 67.7996 7.34255 68.6996ZM227.143 76.7996C228.343 77.8996 228.343 77.9996 228.343 87.3996C228.343 96.8996 228.343 96.8996 227.143 97.9996L226.043 99.1996H118.043H10.0425L8.94255 97.9996C7.74255 96.8996 7.74255 96.7996 7.74255 87.3996C7.74255 77.8996 7.74255 77.8996 8.94255 76.7996L10.0425 75.5996H118.043H226.043L227.143 76.7996ZM214.243 108.7C213.843 109.7 209.843 120.2 205.243 132.1C200.643 144 194.443 160 191.543 167.7C185.943 182.4 185.143 183.8 181.943 185.1C180.743 185.7 169.243 185.7 116.943 185.7H53.2425L51.4426 184.6C50.4426 184 49.2425 183.1 48.7425 182.4C48.0425 181.4 22.6425 111.2 21.8425 107.9L21.5425 106.8H118.143H214.843L214.243 108.7Z" fill="currentColor"/>
<path d="M214.243 108.7C213.843 109.7 209.843 120.2 205.243 132.1C200.643 144 194.443 160 191.543 167.7C185.943 182.4 185.143 183.8 181.943 185.1C180.743 185.7 169.243 185.7 116.943 185.7H53.2425L51.4426 184.6C50.4426 184 49.2425 183.1 48.7425 182.4C48.0425 181.4 22.6425 111.2 21.8425 107.9L21.5425 106.8H118.143H214.843L214.243 108.7Z" fill="currentColor"/>
<path d="M65.9426 123C65.5426 123.1 64.7425 123.7 64.2425 124.2L63.1425 125.1V146.4V167.7L64.2425 168.7C65.7425 170.1 68.2425 170 69.5425 168.7C70.5425 167.6 70.5425 167.5 70.5425 146.3C70.5425 125.6 70.5425 124.9 69.6425 124.1C69.1425 123.6 68.5426 123.2 68.3426 123.2C68.1426 123.2 67.6425 123.1 67.2425 123C66.9425 122.8 66.3426 122.8 65.9426 123Z" fill="currentColor"/>
<path d="M64.8534 123.245C63.8588 123.645 62.8642 124.245 62.6155 124.645C62.4912 125.045 62.2426 134.845 62.2426 146.545V167.645L63.6101 168.645C65.5993 170.145 68.7074 170.045 70.1993 168.445C71.4426 167.245 71.4426 166.745 71.4426 146.145V125.045L70.1993 124.145C68.4588 122.745 66.9669 122.545 64.8534 123.245Z" fill="#D9D9D9"/>
<path d="M97.0425 123.1C94.5425 124.1 94.5425 123.9 94.5425 146.5V167.4L95.7425 168.5C96.9425 169.7 99.0425 170 100.543 169.2C102.243 168.3 102.343 166.4 102.343 146.1C102.343 124.3 102.343 124.1 99.5425 123.2C98.7425 122.9 98.0425 122.7 98.0425 122.7C97.9425 122.7 97.5425 122.9 97.0425 123.1Z" fill="currentColor"/>
<path d="M96.4534 123.137C95.4588 123.537 94.4642 124.137 94.2155 124.537C94.0912 124.937 93.8425 134.737 93.8425 146.437V167.537L95.2101 168.537C97.1993 170.037 100.307 169.937 101.799 168.337C103.043 167.137 103.043 166.637 103.043 146.037V124.937L101.799 124.037C100.059 122.637 98.5669 122.437 96.4534 123.137Z" fill="#D9D9D9"/>
<path d="M136.143 123.3C135.343 123.7 134.443 124.5 134.243 125.1C133.643 126.9 133.643 165.3 134.243 167.2C135.143 169.8 138.443 170.4 140.443 168.4L141.643 167.3V146.3V125.3L140.643 124.1C139.143 122.8 137.943 122.5 136.143 123.3Z" fill="currentColor"/>
<path d="M135.728 123.188C134.734 123.588 133.739 124.188 133.491 124.588C133.366 124.988 133.118 134.788 133.118 146.488V167.588L134.485 168.588C136.474 170.088 139.582 169.988 141.074 168.388C142.318 167.188 142.318 166.688 142.318 146.088V124.988L141.074 124.088C139.334 122.688 137.842 122.488 135.728 123.188Z" fill="#D9D9D9"/>
<path d="M168.053 123.3C167.059 123.7 166.064 124.3 165.816 124.7C165.691 125.1 165.443 134.9 165.443 146.6V167.7L166.81 168.7C168.799 170.2 171.907 170.1 173.399 168.5C174.643 167.3 174.643 166.8 174.643 146.2V125.1L173.399 124.2C171.659 122.8 170.167 122.6 168.053 123.3Z" fill="#D9D9D9"/>
</svg>
