<svg width="208" height="226" viewBox="0 0 208 226" fill="none" xmlns="http://www.w3.org/2000/svg">
<path d="M155.375 0H51.7917C38.061 0.0174421 24.8977 5.47965 15.1887 15.1887C5.47965 24.8977 0.0174421 38.061 0 51.7917V192.778C0.00708172 199.373 1.99259 205.814 5.69978 211.269C9.40696 216.723 14.6653 220.94 20.7948 223.374C26.9244 225.808 33.6431 226.347 40.0823 224.922C46.5215 223.496 52.3849 220.172 56.9143 215.378L103.169 166.411L150.375 215.849C154.919 220.606 160.782 223.895 167.211 225.292C173.639 226.688 180.339 226.129 186.447 223.686C192.555 221.243 197.793 217.029 201.485 211.584C205.178 206.139 207.156 199.714 207.167 193.136V51.7917C207.149 38.061 201.687 24.8977 191.978 15.1887C182.269 5.47965 169.106 0.0174421 155.375 0ZM178.917 193.136C178.915 194.075 178.632 194.992 178.105 195.769C177.579 196.546 176.831 197.148 175.96 197.497C175.088 197.847 174.132 197.927 173.214 197.729C172.296 197.531 171.459 197.063 170.809 196.385L113.367 136.203C112.044 134.817 110.452 133.715 108.689 132.964C106.926 132.213 105.029 131.828 103.112 131.833C101.197 131.839 99.3024 132.234 97.5444 132.995C95.7863 133.756 94.2014 134.867 92.886 136.259L36.386 196.008C35.7555 196.72 34.916 197.215 33.9875 197.421C33.059 197.627 32.089 197.535 31.2162 197.157C30.3172 196.842 29.5433 196.246 29.009 195.458C28.4748 194.669 28.2087 193.73 28.25 192.778V51.7917C28.25 45.548 30.7303 39.5601 35.1452 35.1452C39.5601 30.7303 45.548 28.25 51.7917 28.25H155.375C161.619 28.25 167.607 30.7303 172.021 35.1452C176.436 39.5601 178.917 45.548 178.917 51.7917V193.136Z" fill="currentColor"/>
</svg>
