<svg width="207" height="226" viewBox="0 0 207 226" fill="none" xmlns="http://www.w3.org/2000/svg">
<path d="M17.3987 223.742C22.5364 225.959 28.2166 226.561 33.6983 225.47C39.18 224.379 44.2087 221.644 48.1282 217.624L103.5 162.016L158.872 217.624C161.453 220.269 164.529 222.37 167.92 223.807C171.312 225.244 174.952 225.987 178.63 225.994C182.411 225.982 186.152 225.217 189.639 223.742C194.818 221.625 199.245 217.981 202.343 213.285C205.439 208.587 207.061 203.057 206.998 197.415V47.5036C206.983 34.9094 202.022 22.8356 193.203 13.9301C184.383 5.02476 172.426 0.0150858 159.954 0H47.0462C34.5738 0.0150858 22.6165 5.02476 13.7972 13.9301C4.97785 22.8356 0.0165785 34.9094 0.00163853 47.5036V197.415C-0.0590789 203.062 1.56894 208.595 4.67283 213.292C7.77671 217.989 12.212 221.631 17.3987 223.742Z" fill="currentColor"/>
</svg>
