<svg width="234" height="234" viewBox="0 0 234 234" fill="none" xmlns="http://www.w3.org/2000/svg">
<mask id="mask0_17_43" style="mask-type:luminance" maskUnits="userSpaceOnUse" x="0" y="0" width="234" height="234">
<path d="M234 0H0V234H234V0Z" fill="white"/>
</mask>
<g mask="url(#mask0_17_43)">
<path d="M221.452 39.7508C218.709 36.4595 215.276 33.8125 211.395 31.9977C207.514 30.1829 203.282 29.2447 198.997 29.25H41.3595L40.95 25.8277C40.112 18.7143 36.693 12.1556 31.3413 7.39516C25.9896 2.63467 19.0771 0.00333248 11.9145 0H9.75C7.16414 0 4.68419 1.02723 2.85571 2.85571C1.02723 4.68419 0 7.16414 0 9.75C0 12.3359 1.02723 14.8158 2.85571 16.6443C4.68419 18.4727 7.16414 19.5 9.75 19.5H11.9145C14.3026 19.5003 16.6076 20.3771 18.3921 21.964C20.1767 23.5508 21.3168 25.7376 21.5962 28.1092L35.0123 142.184C36.405 154.048 42.1052 164.988 51.0306 172.926C59.9561 180.864 71.4855 185.25 83.4308 185.25H185.25C187.836 185.25 190.316 184.222 192.144 182.394C193.972 180.566 195 178.086 195 175.5C195 172.914 193.972 170.434 192.144 168.606C190.316 166.778 187.836 165.75 185.25 165.75H83.4308C77.3961 165.733 71.5143 163.85 66.5919 160.359C61.6694 156.868 57.9473 151.939 55.9357 146.25H172.156C183.586 146.251 194.652 142.235 203.422 134.905C212.192 127.575 218.107 117.397 220.135 106.148L227.789 63.6967C228.554 59.4848 228.381 55.1564 227.286 51.0182C226.191 46.88 224.199 43.0334 221.452 39.7508ZM208.65 60.2355L200.987 102.687C199.769 109.444 196.214 115.557 190.943 119.956C185.672 124.355 179.022 126.761 172.156 126.75H52.8353L43.6605 48.75H198.997C200.43 48.7414 201.846 49.0485 203.146 49.6495C204.447 50.2504 205.598 51.1305 206.52 52.2269C207.441 53.3234 208.11 54.6095 208.478 55.9937C208.846 57.3778 208.905 58.826 208.65 60.2355Z" fill="currentColor"/>
<path d="M68.2512 234.006C79.0207 234.006 87.7511 225.276 87.7511 214.506C87.7511 203.736 79.0207 195.006 68.2512 195.006C57.4816 195.006 48.7512 203.736 48.7512 214.506C48.7512 225.276 57.4816 234.006 68.2512 234.006Z" fill="currentColor"/>
<path d="M165.75 234.006C176.52 234.006 185.25 225.276 185.25 214.506C185.25 203.736 176.52 195.006 165.75 195.006C154.98 195.006 146.25 203.736 146.25 214.506C146.25 225.276 154.98 234.006 165.75 234.006Z" fill="currentColor"/>
</g>
</svg>
