<svg width="232" height="232" viewBox="0 0 232 232" fill="none" xmlns="http://www.w3.org/2000/svg">
<mask id="mask0_17_34" style="mask-type:luminance" maskUnits="userSpaceOnUse" x="0" y="0" width="232" height="232">
<path d="M232 0H0V232H232V0Z" fill="white"/>
</mask>
<g mask="url(#mask0_17_34)">
<path d="M219.559 39.411C216.84 36.1479 213.436 33.5235 209.588 31.7243C205.74 29.9249 201.544 28.9948 197.297 29H41.006L40.6 25.607C39.7691 18.5544 36.3793 12.0517 31.0734 7.33195C25.7675 2.61216 18.9141 0.003304 11.8127 0H9.66667C7.10291 0 4.64416 1.01845 2.8313 2.8313C1.01845 4.64416 0 7.10291 0 9.66667C0 12.2305 1.01845 14.6892 2.8313 16.5021C4.64416 18.3149 7.10291 19.3333 9.66667 19.3333H11.8127C14.1803 19.3336 16.4656 20.2029 18.2349 21.7763C20.0043 23.3495 21.1346 25.5176 21.4117 27.869L34.713 140.969C36.0939 152.731 41.7453 163.577 50.5945 171.448C59.4436 179.319 70.8745 183.667 82.7177 183.667H183.667C186.23 183.667 188.689 182.648 190.502 180.835C192.314 179.023 193.333 176.564 193.333 174C193.333 171.436 192.314 168.977 190.502 167.165C188.689 165.352 186.23 164.333 183.667 164.333H82.7177C76.7346 164.317 70.9031 162.449 66.0227 158.989C61.1423 155.527 57.452 150.641 55.4577 145H170.684C182.017 145.001 192.988 141.019 201.683 133.752C210.379 126.484 216.243 116.393 218.254 105.241L225.842 63.1523C226.6 58.9764 226.429 54.685 225.344 50.5822C224.258 46.4794 222.283 42.6656 219.559 39.411Z" fill="currentColor"/>
<path d="M67.6661 232.006C78.3435 232.006 86.9993 223.35 86.9993 212.672C86.9993 201.994 78.3435 193.339 67.6661 193.339C56.9886 193.339 48.3328 201.994 48.3328 212.672C48.3328 223.35 56.9886 232.006 67.6661 232.006Z" fill="currentColor"/>
<path d="M164.333 232.006C175.011 232.006 183.667 223.35 183.667 212.672C183.667 201.994 175.011 193.339 164.333 193.339C153.656 193.339 145 201.994 145 212.672C145 223.35 153.656 232.006 164.333 232.006Z" fill="currentColor"/>
</g>
</svg>
