<svg width="224" height="224" viewBox="0 0 224 224" fill="none" xmlns="http://www.w3.org/2000/svg">
<path d="M215.796 84.4446L145.003 13.6419C136.241 4.90574 124.373 0 112 0C99.6273 0 87.7592 4.90574 78.9975 13.6419L8.20412 84.4446C5.59475 87.0372 3.52597 90.122 2.11768 93.5202C0.709401 96.9183 -0.0103637 100.562 0.000112742 104.241V195.866C0.000112742 203.292 2.95011 210.414 8.20113 215.665C13.4522 220.916 20.5741 223.866 28.0001 223.866H196C203.426 223.866 210.548 220.916 215.799 215.665C221.05 210.414 224 203.292 224 195.866V104.241C224.01 100.562 223.291 96.9183 221.882 93.5202C220.474 90.122 218.405 87.0372 215.796 84.4446ZM140 205.199H84.0002V168.482C84.0002 161.056 86.9501 153.934 92.2012 148.683C97.4522 143.432 104.574 140.482 112 140.482C119.426 140.482 126.548 143.432 131.799 148.683C137.05 153.934 140 161.056 140 168.482V205.199ZM205.333 195.866C205.333 198.341 204.35 200.715 202.6 202.466C200.849 204.216 198.475 205.199 196 205.199H158.667V168.482C158.667 156.105 153.75 144.235 144.998 135.484C136.247 126.732 124.377 121.815 112 121.815C99.6234 121.815 87.7535 126.732 79.0018 135.484C70.2501 144.235 65.3335 156.105 65.3335 168.482V205.199H28.0001C25.5248 205.199 23.1508 204.216 21.4005 202.466C19.6501 200.715 18.6668 198.341 18.6668 195.866V104.241C18.6755 101.767 19.6579 99.3964 21.4015 97.6419L92.1948 26.8672C97.456 21.6306 104.577 18.6907 112 18.6907C119.423 18.6907 126.544 21.6306 131.805 26.8672L202.599 97.6699C204.335 99.4175 205.317 101.777 205.333 104.241V195.866Z" fill="currentColor"/>
</svg>
