<svg width="224" height="224" viewBox="0 0 224 224" fill="none" xmlns="http://www.w3.org/2000/svg">
<path d="M158.667 167.861V223.861H196C211.464 223.861 224 211.324 224 195.861V110.731C224.002 105.883 222.118 101.223 218.745 97.7393L139.431 11.9937C125.436 -3.14816 101.816 -4.07785 86.6744 9.9169C85.9552 10.5819 85.2622 11.2745 84.5976 11.9937L5.42281 97.7113C1.94819 101.21 -0.00131184 105.941 6.62302e-07 110.871V195.861C6.62302e-07 211.324 12.5361 223.861 28 223.861H65.3332V167.861C65.5077 142.41 86.0558 121.627 110.865 121.029C136.504 120.41 158.471 141.547 158.667 167.861Z" fill="currentColor"/>
</svg>
