<svg width="40" height="44" viewBox="0 0 40 44" fill="none" xmlns="http://www.w3.org/2000/svg">
<path fill-rule="evenodd" clip-rule="evenodd" d="M13.2682 28.2402C12.7293 28.3602 12.187 28.6002 11.7603 28.907C11.4954 29.0974 11.0595 29.5202 10.8739 29.7666C10.4647 30.3094 10.0062 30.8926 9.9888 30.8926C9.9776 30.8926 9.79664 30.6702 9.58672 30.3986C9.37684 30.1266 9.14372 29.8258 9.0684 29.7298C8.8628 29.4674 8.4218 29.059 8.14492 28.8746C7.431 28.3994 6.69676 28.1722 5.8778 28.1722C4.13816 28.1722 2.5964 29.2446 2.01824 30.8574C1.8716 31.2654 1.81832 31.6058 1.81776 32.1382C1.81692 32.8914 1.9432 33.5674 2.21468 34.2618C2.84008 35.8614 4.14532 37.3446 6.29732 38.9014C6.86544 39.3122 8.1452 40.1586 8.67212 40.4714C8.7746 40.5326 9.09648 40.7386 9.388 40.9302C9.67952 41.1214 9.93324 41.287 9.95212 41.2978C9.97188 41.309 10.093 41.2386 10.2385 41.131C10.3771 41.0286 10.6904 40.8266 10.9344 40.6822C12.0261 40.037 13.1916 39.269 13.9986 38.6634C16.6833 36.6494 17.983 34.7258 18.1501 32.519C18.2456 31.2566 17.8323 30.149 16.9536 29.313C16.3405 28.7298 15.6157 28.3694 14.743 28.213C14.4555 28.1614 13.5452 28.1782 13.2682 28.2402ZM27.2568 28.1862C27.2568 28.6846 26.8532 29.0882 26.3548 29.0882H24.2116H21.1664C21.1664 29.0882 20.0704 27.3398 20.0588 27.3202C20.0416 27.2914 20.7668 27.2842 23.6472 27.2842H26.3548C26.8532 27.2842 27.2568 27.6882 27.2568 28.1862ZM33.614 28.1862V28.1866C33.614 28.6846 33.2104 29.0882 32.7124 29.0882H31.7956H30.8792C30.3812 29.0882 29.9772 28.6846 29.9772 28.1866V28.1862C29.9772 27.6882 30.3812 27.2842 30.8792 27.2842H31.7956H32.7124C33.2104 27.2842 33.614 27.6882 33.614 28.1862ZM14.6714 26.4002C16.0552 26.5326 17.4223 27.1926 18.381 28.1914C19.7402 29.6074 20.2408 31.4174 19.8537 33.5142C19.4496 35.7026 18.0674 37.7254 15.645 39.6734C14.8654 40.3002 14.2121 40.7514 11.6582 42.4266C11.3152 42.6518 10.9378 42.9206 10.8198 43.0246C10.7018 43.1282 10.4859 43.3094 10.3404 43.427C10.1862 43.5518 9.9656 43.5518 9.81152 43.4266L9.72476 43.3562C9.53176 43.1998 9.09648 42.8806 8.758 42.6474C8.41952 42.4142 8.01976 42.1366 7.87028 42.0306C7.72084 41.925 7.32104 41.6598 6.98256 41.4414C4.95312 40.133 3.90076 39.3254 2.8286 38.2538C1.83696 37.2622 1.19436 36.3802 0.710397 35.3466C0.418877 34.7234 0.171196 33.9034 0.0655159 33.2122C0.00307591 32.8026 -0.0212442 31.8662 0.0214358 31.5066C0.142276 30.4798 0.512796 29.5522 1.13252 28.7218C1.3404 28.4434 1.83436 27.9326 2.11444 27.7058C3.40076 26.6646 5.13096 26.1926 6.75864 26.4386C7.80756 26.5974 8.83476 27.0534 9.71044 27.7502L9.9902 27.9726L10.2116 27.791C11.4844 26.7478 13.0846 26.2486 14.6714 26.4002ZM27.2568 22.731V22.7458C27.2568 23.2438 26.8532 23.6474 26.3552 23.6474H19.5248H12.7018C12.2009 23.6474 11.796 23.2394 11.8002 22.7382L11.8003 22.7226C11.8044 22.2278 12.2064 21.8286 12.7012 21.8282L19.5324 21.8218L26.3544 21.8154C26.8528 21.815 27.2568 22.219 27.2568 22.7174V22.731ZM33.614 22.731V22.7458C33.614 23.2438 33.2104 23.6474 32.7124 23.6474H31.7952H30.8856C30.3848 23.6474 29.98 23.2394 29.984 22.7382L29.9844 22.7198C29.9884 22.2262 30.3888 21.8274 30.8824 21.8254L31.8028 21.8218L32.7088 21.8182C33.2084 21.8162 33.614 22.2202 33.614 22.7198V22.731ZM27.2568 17.2757V17.2762C27.2568 17.7742 26.8532 18.1782 26.3552 18.1782H19.5252H12.6951C12.1972 18.1782 11.7934 17.7742 11.7934 17.2762V17.2757C11.7934 16.7777 12.1972 16.3737 12.6951 16.3737H19.5252H26.3552C26.8532 16.3737 27.2568 16.7777 27.2568 17.2757ZM33.614 17.2757V17.2762C33.614 17.7742 33.2104 18.1782 32.7124 18.1782H31.7956H30.8792C30.3812 18.1782 29.9772 17.7742 29.9772 17.2762V17.2757C29.9772 16.7777 30.3812 16.3737 30.8792 16.3737H31.7956H32.7124C33.2104 16.3737 33.614 16.7777 33.614 17.2757ZM27.2568 11.8206V11.8354C27.2568 12.3334 26.8532 12.7369 26.3552 12.7369H19.5248H12.7018C12.2009 12.7369 11.796 12.3289 11.8002 11.8277L11.8003 11.8122C11.8044 11.3174 12.2064 10.9181 12.7012 10.9177L19.5324 10.9114L26.3544 10.9049C26.8528 10.9045 27.2568 11.3085 27.2568 11.8069V11.8206ZM33.614 11.8206V11.8354C33.614 12.3334 33.2104 12.7369 32.7124 12.7369H31.7952H30.8856C30.3848 12.7369 29.98 12.3289 29.984 11.8277L29.9844 11.8093C29.9884 11.3157 30.3888 10.9169 30.8824 10.9149L31.8028 10.9114L32.7088 10.9077C33.2084 10.9057 33.614 11.3097 33.614 11.8093V11.8206ZM39.9808 0.0129494C39.9916 0.0237494 40 9.43095 40 20.9186C40 37.601 39.9928 41.8074 39.9644 41.8182C39.9444 41.8258 34.5064 41.8286 27.8792 41.8246L18.3729 41.8186C17.5184 41.8182 17.1358 40.7466 17.7966 40.205C17.9593 40.0718 18.1632 39.9986 18.3735 39.9986H28.1076H38.1672V20.9129V1.82695H22.718H7.26892V13.2566V23.6518C7.26892 24.159 6.8564 24.5698 6.34896 24.5678C5.84432 24.5658 5.43648 24.1558 5.43676 23.651L5.44336 12.2862L5.45056 0.00854756L22.706 0.00135151C32.1968 -0.00264849 39.9704 0.00254941 39.9808 0.0129494Z" />
</svg>
